<svg xmlns="http://www.w3.org/2000/svg" viewBox="0 0 280 580" fill="none">
  <defs>
    <linearGradient id="bgGrad" x1="0%" y1="0%" x2="100%" y2="100%">
      <stop offset="0%" style="stop-color:#FDF6F7"/>
      <stop offset="100%" style="stop-color:#F0F7F4"/>
    </linearGradient>
    <linearGradient id="headerGrad" x1="0%" y1="0%" x2="100%" y2="0%">
      <stop offset="0%" style="stop-color:#C89FA3"/>
      <stop offset="100%" style="stop-color:#A5C3B5"/>
    </linearGradient>
  </defs>
  
  <!-- Background -->
  <rect width="280" height="580" fill="url(#bgGrad)"/>
  
  <!-- Header -->
  <rect width="280" height="90" fill="url(#headerGrad)"/>
  
  <!-- Status bar -->
  <text x="20" y="25" fill="white" font-size="12" font-family="Arial">9:41</text>
  <text x="230" y="25" fill="white" font-size="12" font-family="Arial">100%</text>
  
  <!-- Logo -->
  <circle cx="40" cy="60" r="20" fill="white" opacity="0.3"/>
  <text x="70" y="65" fill="white" font-size="16" font-weight="bold" font-family="Arial">Doctor Apa</text>
  
  <!-- Welcome Card -->
  <rect x="15" y="105" width="250" height="100" rx="15" fill="white" filter="drop-shadow(0 4px 6px rgba(0,0,0,0.1))"/>
  <text x="30" y="135" fill="#333" font-size="14" font-weight="bold" font-family="Arial">Welcome back!</text>
  <text x="30" y="160" fill="#666" font-size="11" font-family="Arial">Your health companion is here</text>
  <rect x="30" y="175" width="100" height="20" rx="10" fill="#C89FA3"/>
  <text x="55" y="188" fill="white" font-size="9" font-family="Arial">Start Now</text>
  
  <!-- Feature Cards Grid -->
  <rect x="15" y="220" width="118" height="90" rx="12" fill="white" filter="drop-shadow(0 2px 4px rgba(0,0,0,0.1))"/>
  <circle cx="45" cy="250" r="15" fill="#E8D4D6"/>
  <text x="30" y="285" fill="#333" font-size="10" font-weight="bold" font-family="Arial">AI Doctor</text>
  <text x="30" y="298" fill="#999" font-size="8" font-family="Arial">24/7 Assistant</text>
  
  <rect x="147" y="220" width="118" height="90" rx="12" fill="white" filter="drop-shadow(0 2px 4px rgba(0,0,0,0.1))"/>
  <circle cx="177" cy="250" r="15" fill="#D4E8DC"/>
  <text x="162" y="285" fill="#333" font-size="10" font-weight="bold" font-family="Arial">Health Track</text>
  <text x="162" y="298" fill="#999" font-size="8" font-family="Arial">Monitor Daily</text>
  
  <rect x="15" y="320" width="118" height="90" rx="12" fill="white" filter="drop-shadow(0 2px 4px rgba(0,0,0,0.1))"/>
  <circle cx="45" cy="350" r="15" fill="#D4E2F0"/>
  <text x="30" y="385" fill="#333" font-size="10" font-weight="bold" font-family="Arial">Period Track</text>
  <text x="30" y="398" fill="#999" font-size="8" font-family="Arial">Women's Health</text>
  
  <rect x="147" y="320" width="118" height="90" rx="12" fill="white" filter="drop-shadow(0 2px 4px rgba(0,0,0,0.1))"/>
  <circle cx="177" cy="350" r="15" fill="#F0E4D4"/>
  <text x="162" y="385" fill="#333" font-size="10" font-weight="bold" font-family="Arial">Teen Health</text>
  <text x="162" y="398" fill="#999" font-size="8" font-family="Arial">Adolescent Care</text>
  
  <!-- Health Stats -->
  <rect x="15" y="425" width="250" height="80" rx="15" fill="white" filter="drop-shadow(0 4px 6px rgba(0,0,0,0.1))"/>
  <text x="30" y="450" fill="#333" font-size="12" font-weight="bold" font-family="Arial">Today's Overview</text>
  
  <rect x="30" y="460" width="60" height="6" rx="3" fill="#E8D4D6"/>
  <rect x="30" y="460" width="45" height="6" rx="3" fill="#C89FA3"/>
  <text x="30" y="480" fill="#666" font-size="8" font-family="Arial">Steps: 6,500</text>
  
  <rect x="110" y="460" width="60" height="6" rx="3" fill="#D4E8DC"/>
  <rect x="110" y="460" width="40" height="6" rx="3" fill="#A5C3B5"/>
  <text x="110" y="480" fill="#666" font-size="8" font-family="Arial">Water: 5/8</text>
  
  <rect x="190" y="460" width="60" height="6" rx="3" fill="#D4E2F0"/>
  <rect x="190" y="460" width="55" height="6" rx="3" fill="#B0C4D3"/>
  <text x="190" y="480" fill="#666" font-size="8" font-family="Arial">Sleep: 7h</text>
  
  <!-- Bottom Navigation -->
  <rect x="0" y="520" width="280" height="60" fill="white" filter="drop-shadow(0 -2px 10px rgba(0,0,0,0.1))"/>
  
  <circle cx="40" cy="545" r="12" fill="#C89FA3"/>
  <text x="30" y="568" fill="#C89FA3" font-size="8" font-family="Arial">Home</text>
  
  <circle cx="100" cy="545" r="12" fill="#E8E8E8"/>
  <text x="85" y="568" fill="#999" font-size="8" font-family="Arial">Health</text>
  
  <circle cx="160" cy="545" r="12" fill="#E8E8E8"/>
  <text x="150" y="568" fill="#999" font-size="8" font-family="Arial">Shop</text>
  
  <circle cx="220" cy="545" r="12" fill="#E8E8E8"/>
  <text x="207" y="568" fill="#999" font-size="8" font-family="Arial">Profile</text>
</svg>
