<svg xmlns="http://www.w3.org/2000/svg" viewBox="0 0 100 100">
  <!-- QR Code Pattern -->
  <rect width="100" height="100" fill="white"/>
  
  <!-- Position Detection Patterns (corners) -->
  <!-- Top-left -->
  <rect x="5" y="5" width="20" height="20" fill="#333"/>
  <rect x="8" y="8" width="14" height="14" fill="white"/>
  <rect x="11" y="11" width="8" height="8" fill="#333"/>
  
  <!-- Top-right -->
  <rect x="75" y="5" width="20" height="20" fill="#333"/>
  <rect x="78" y="8" width="14" height="14" fill="white"/>
  <rect x="81" y="11" width="8" height="8" fill="#333"/>
  
  <!-- Bottom-left -->
  <rect x="5" y="75" width="20" height="20" fill="#333"/>
  <rect x="8" y="78" width="14" height="14" fill="white"/>
  <rect x="11" y="81" width="8" height="8" fill="#333"/>
  
  <!-- Data modules (simplified pattern) -->
  <rect x="30" y="5" width="4" height="4" fill="#333"/>
  <rect x="38" y="5" width="4" height="4" fill="#333"/>
  <rect x="50" y="5" width="4" height="4" fill="#333"/>
  <rect x="58" y="5" width="4" height="4" fill="#333"/>
  
  <rect x="30" y="13" width="4" height="4" fill="#333"/>
  <rect x="42" y="13" width="4" height="4" fill="#333"/>
  <rect x="54" y="13" width="4" height="4" fill="#333"/>
  <rect x="66" y="13" width="4" height="4" fill="#333"/>
  
  <rect x="5" y="30" width="4" height="4" fill="#333"/>
  <rect x="17" y="30" width="4" height="4" fill="#333"/>
  <rect x="30" y="30" width="4" height="4" fill="#333"/>
  <rect x="38" y="30" width="4" height="4" fill="#333"/>
  <rect x="50" y="30" width="4" height="4" fill="#333"/>
  <rect x="62" y="30" width="4" height="4" fill="#333"/>
  <rect x="75" y="30" width="4" height="4" fill="#333"/>
  <rect x="87" y="30" width="4" height="4" fill="#333"/>
  
  <rect x="5" y="38" width="4" height="4" fill="#333"/>
  <rect x="13" y="38" width="4" height="4" fill="#333"/>
  <rect x="30" y="38" width="4" height="4" fill="#333"/>
  <rect x="46" y="38" width="4" height="4" fill="#333"/>
  <rect x="58" y="38" width="4" height="4" fill="#333"/>
  <rect x="70" y="38" width="4" height="4" fill="#333"/>
  <rect x="83" y="38" width="4" height="4" fill="#333"/>
  <rect x="91" y="38" width="4" height="4" fill="#333"/>
  
  <rect x="5" y="46" width="4" height="4" fill="#333"/>
  <rect x="17" y="46" width="4" height="4" fill="#333"/>
  <rect x="30" y="46" width="4" height="4" fill="#333"/>
  <rect x="42" y="46" width="4" height="4" fill="#333"/>
  <rect x="54" y="46" width="4" height="4" fill="#333"/>
  <rect x="66" y="46" width="4" height="4" fill="#333"/>
  <rect x="78" y="46" width="4" height="4" fill="#333"/>
  <rect x="91" y="46" width="4" height="4" fill="#333"/>
  
  <rect x="5" y="54" width="4" height="4" fill="#333"/>
  <rect x="13" y="54" width="4" height="4" fill="#333"/>
  <rect x="25" y="54" width="4" height="4" fill="#333"/>
  <rect x="38" y="54" width="4" height="4" fill="#333"/>
  <rect x="50" y="54" width="4" height="4" fill="#333"/>
  <rect x="62" y="54" width="4" height="4" fill="#333"/>
  <rect x="75" y="54" width="4" height="4" fill="#333"/>
  <rect x="87" y="54" width="4" height="4" fill="#333"/>
  
  <rect x="5" y="62" width="4" height="4" fill="#333"/>
  <rect x="21" y="62" width="4" height="4" fill="#333"/>
  <rect x="34" y="62" width="4" height="4" fill="#333"/>
  <rect x="46" y="62" width="4" height="4" fill="#333"/>
  <rect x="58" y="62" width="4" height="4" fill="#333"/>
  <rect x="70" y="62" width="4" height="4" fill="#333"/>
  <rect x="83" y="62" width="4" height="4" fill="#333"/>
  <rect x="91" y="62" width="4" height="4" fill="#333"/>
  
  <rect x="30" y="75" width="4" height="4" fill="#333"/>
  <rect x="42" y="75" width="4" height="4" fill="#333"/>
  <rect x="54" y="75" width="4" height="4" fill="#333"/>
  <rect x="66" y="75" width="4" height="4" fill="#333"/>
  <rect x="78" y="75" width="4" height="4" fill="#333"/>
  <rect x="91" y="75" width="4" height="4" fill="#333"/>
  
  <rect x="30" y="83" width="4" height="4" fill="#333"/>
  <rect x="38" y="83" width="4" height="4" fill="#333"/>
  <rect x="50" y="83" width="4" height="4" fill="#333"/>
  <rect x="62" y="83" width="4" height="4" fill="#333"/>
  <rect x="75" y="83" width="4" height="4" fill="#333"/>
  <rect x="87" y="83" width="4" height="4" fill="#333"/>
  
  <rect x="30" y="91" width="4" height="4" fill="#333"/>
  <rect x="46" y="91" width="4" height="4" fill="#333"/>
  <rect x="58" y="91" width="4" height="4" fill="#333"/>
  <rect x="70" y="91" width="4" height="4" fill="#333"/>
  <rect x="83" y="91" width="4" height="4" fill="#333"/>
  
  <!-- Center Logo Area -->
  <circle cx="50" cy="50" r="10" fill="white"/>
  <circle cx="50" cy="50" r="8" fill="#C89FA3"/>
  <text x="45" y="54" fill="white" font-size="8" font-weight="bold" font-family="Arial">D</text>
</svg>
